<mxfile host="app.diagrams.net" modified="2024-04-07T19:01:25.736Z" agent="Mozilla/5.0 (Windows NT 10.0; Win64; x64) AppleWebKit/537.36 (KHTML, like Gecko) Chrome/123.0.0.0 Safari/537.36" etag="r4oPLq5zS-m2vwKumx5_" version="24.2.2" type="device">
  <diagram name="PÃ¡gina-1" id="MbNSq4addQoSPEfi8qUK">
    <mxGraphModel dx="1877" dy="522" grid="1" gridSize="10" guides="1" tooltips="1" connect="1" arrows="1" fold="1" page="1" pageScale="1" pageWidth="827" pageHeight="1169" math="0" shadow="0">
      <root>
        <mxCell id="0" />
        <mxCell id="1" parent="0" />
        <mxCell id="UWYEigsfNhlOtDnaGmGY-3" style="edgeStyle=orthogonalEdgeStyle;rounded=0;orthogonalLoop=1;jettySize=auto;html=1;" edge="1" parent="1" source="UWYEigsfNhlOtDnaGmGY-1" target="UWYEigsfNhlOtDnaGmGY-2">
          <mxGeometry relative="1" as="geometry" />
        </mxCell>
        <mxCell id="UWYEigsfNhlOtDnaGmGY-12" style="edgeStyle=orthogonalEdgeStyle;rounded=0;orthogonalLoop=1;jettySize=auto;html=1;" edge="1" parent="1" source="UWYEigsfNhlOtDnaGmGY-1" target="UWYEigsfNhlOtDnaGmGY-10">
          <mxGeometry relative="1" as="geometry" />
        </mxCell>
        <mxCell id="UWYEigsfNhlOtDnaGmGY-1" value="&lt;div&gt;api&lt;/div&gt;orquestrador" style="rounded=0;whiteSpace=wrap;html=1;" vertex="1" parent="1">
          <mxGeometry x="200" y="280" width="120" height="80" as="geometry" />
        </mxCell>
        <mxCell id="UWYEigsfNhlOtDnaGmGY-7" style="edgeStyle=orthogonalEdgeStyle;rounded=0;orthogonalLoop=1;jettySize=auto;html=1;exitX=1;exitY=0.5;exitDx=0;exitDy=0;exitPerimeter=0;" edge="1" parent="1" source="UWYEigsfNhlOtDnaGmGY-2" target="UWYEigsfNhlOtDnaGmGY-4">
          <mxGeometry relative="1" as="geometry">
            <Array as="points">
              <mxPoint x="640" y="320" />
              <mxPoint x="640" y="160" />
            </Array>
          </mxGeometry>
        </mxCell>
        <mxCell id="UWYEigsfNhlOtDnaGmGY-8" style="edgeStyle=orthogonalEdgeStyle;rounded=0;orthogonalLoop=1;jettySize=auto;html=1;entryX=0;entryY=0.5;entryDx=0;entryDy=0;exitX=1;exitY=0.5;exitDx=0;exitDy=0;exitPerimeter=0;" edge="1" parent="1" source="UWYEigsfNhlOtDnaGmGY-2" target="UWYEigsfNhlOtDnaGmGY-5">
          <mxGeometry relative="1" as="geometry">
            <Array as="points">
              <mxPoint x="640" y="320" />
              <mxPoint x="640" y="320" />
            </Array>
          </mxGeometry>
        </mxCell>
        <mxCell id="UWYEigsfNhlOtDnaGmGY-9" style="edgeStyle=orthogonalEdgeStyle;rounded=0;orthogonalLoop=1;jettySize=auto;html=1;entryX=0;entryY=0.5;entryDx=0;entryDy=0;exitX=1;exitY=0.5;exitDx=0;exitDy=0;exitPerimeter=0;" edge="1" parent="1" source="UWYEigsfNhlOtDnaGmGY-2" target="UWYEigsfNhlOtDnaGmGY-6">
          <mxGeometry relative="1" as="geometry">
            <Array as="points">
              <mxPoint x="640" y="320" />
              <mxPoint x="640" y="480" />
            </Array>
          </mxGeometry>
        </mxCell>
        <mxCell id="UWYEigsfNhlOtDnaGmGY-2" value="" style="sketch=0;points=[[0,0,0],[0.25,0,0],[0.5,0,0],[0.75,0,0],[1,0,0],[0,1,0],[0.25,1,0],[0.5,1,0],[0.75,1,0],[1,1,0],[0,0.25,0],[0,0.5,0],[0,0.75,0],[1,0.25,0],[1,0.5,0],[1,0.75,0]];outlineConnect=0;fontColor=#232F3E;fillColor=#8C4FFF;strokeColor=#ffffff;dashed=0;verticalLabelPosition=bottom;verticalAlign=top;align=center;html=1;fontSize=12;fontStyle=0;aspect=fixed;shape=mxgraph.aws4.resourceIcon;resIcon=mxgraph.aws4.managed_streaming_for_kafka;" vertex="1" parent="1">
          <mxGeometry x="440" y="280" width="80" height="80" as="geometry" />
        </mxCell>
        <mxCell id="UWYEigsfNhlOtDnaGmGY-4" value="" style="rounded=0;whiteSpace=wrap;html=1;" vertex="1" parent="1">
          <mxGeometry x="760" y="120" width="120" height="80" as="geometry" />
        </mxCell>
        <mxCell id="UWYEigsfNhlOtDnaGmGY-5" value="" style="rounded=0;whiteSpace=wrap;html=1;" vertex="1" parent="1">
          <mxGeometry x="760" y="280" width="120" height="80" as="geometry" />
        </mxCell>
        <mxCell id="UWYEigsfNhlOtDnaGmGY-6" value="" style="rounded=0;whiteSpace=wrap;html=1;" vertex="1" parent="1">
          <mxGeometry x="760" y="440" width="120" height="80" as="geometry" />
        </mxCell>
        <mxCell id="UWYEigsfNhlOtDnaGmGY-11" style="edgeStyle=orthogonalEdgeStyle;rounded=0;orthogonalLoop=1;jettySize=auto;html=1;entryX=0;entryY=0.5;entryDx=0;entryDy=0;" edge="1" parent="1" source="UWYEigsfNhlOtDnaGmGY-10" target="UWYEigsfNhlOtDnaGmGY-1">
          <mxGeometry relative="1" as="geometry" />
        </mxCell>
        <mxCell id="UWYEigsfNhlOtDnaGmGY-10" value="&lt;div&gt;api&lt;/div&gt;&lt;div&gt;Order-Service&lt;/div&gt;" style="rounded=0;whiteSpace=wrap;html=1;" vertex="1" parent="1">
          <mxGeometry x="-40" y="280" width="120" height="80" as="geometry" />
        </mxCell>
      </root>
    </mxGraphModel>
  </diagram>
</mxfile>
